<mxfile host="app.diagrams.net" modified="2024-03-29T17:43:14.356Z" agent="Mozilla/5.0 (Windows NT 10.0; Win64; x64) AppleWebKit/537.36 (KHTML, like Gecko) Chrome/123.0.0.0 Safari/537.36" etag="mW3Yl0ooZBr3Rl5w51H0" version="24.0.7" type="github">
  <diagram name="Страница — 1" id="vihiiw9dUTrwdX7HIPii">
    <mxGraphModel dx="1482" dy="766" grid="1" gridSize="10" guides="1" tooltips="1" connect="1" arrows="1" fold="1" page="1" pageScale="1" pageWidth="827" pageHeight="1169" math="0" shadow="0">
      <root>
        <mxCell id="0" />
        <mxCell id="1" parent="0" />
        <mxCell id="kBzsxj-3H0ryX6bzzpOX-5" style="edgeStyle=orthogonalEdgeStyle;rounded=0;orthogonalLoop=1;jettySize=auto;html=1;" parent="1" source="kBzsxj-3H0ryX6bzzpOX-3" target="kBzsxj-3H0ryX6bzzpOX-4" edge="1">
          <mxGeometry relative="1" as="geometry" />
        </mxCell>
        <mxCell id="kBzsxj-3H0ryX6bzzpOX-3" value="&lt;font style=&quot;font-size: 18px;&quot;&gt;Панель Работадателя&lt;/font&gt;" style="rounded=1;whiteSpace=wrap;html=1;" parent="1" vertex="1">
          <mxGeometry x="250" y="100" width="120" height="230" as="geometry" />
        </mxCell>
        <mxCell id="kBzsxj-3H0ryX6bzzpOX-4" value="Добавить Вакансию" style="rounded=0;whiteSpace=wrap;html=1;" parent="1" vertex="1">
          <mxGeometry x="510" y="185" width="120" height="60" as="geometry" />
        </mxCell>
        <mxCell id="kBzsxj-3H0ryX6bzzpOX-6" value="" style="rounded=0;whiteSpace=wrap;html=1;" parent="1" vertex="1">
          <mxGeometry x="250" y="470" width="120" height="60" as="geometry" />
        </mxCell>
      </root>
    </mxGraphModel>
  </diagram>
</mxfile>
